<?xml version="1.0" encoding="utf-8"?>
<!-- Generator: Adobe Illustrator 23.0.6, SVG Export Plug-In . SVG Version: 6.00 Build 0)  -->
<svg version="1.1" id="Layer_1" xmlns="http://www.w3.org/2000/svg" xmlns:xlink="http://www.w3.org/1999/xlink" x="0px" y="0px"
	 viewBox="0 0 64 64" style="enable-background:new 0 0 64 64;" xml:space="preserve">
<style type="text/css">
	.st0{fill:none;}
	.st1{fill:#E8575D;}
</style>
<g>
	<polygon class="st0" points="31,30 31,19 16,30 	"/>
	<path class="st0" d="M29,18H18.2c-7,0-13.1,5.1-15.3,12h9.8L29,18z"/>
	<path class="st0" d="M14.8,9.8c2.2,1,7,2.7,12.2,1.4V10h-3c-0.6,0-1-0.4-1-1s0.4-1,1-1h3V6.8C25,6.6,19.5,6.2,14.8,9.8z"/>
	<path class="st1" d="M64,42.2v-6.7C64,24.8,56.1,16,46.4,16H35.9c0.6-0.8,1-1.7,1.1-2.7c1.2,0.2,2.4,0.3,3.5,0.3
		c6.4,0,11.7-3.3,12-3.4c0.3-0.2,0.4-0.4,0.5-0.8s-0.1-0.6-0.3-0.8C47.2,3.5,39.9,4.2,37,4.8C37,2.1,34.9,0,32.2,0H32h-0.2
		C29.1,0,27,2.1,27,4.8v0.1c-2.7-0.3-9.3-0.5-14.7,4.4C12.1,9.5,12,9.8,12,10.1s0.2,0.6,0.5,0.8c0.2,0.1,4.7,2.8,10.6,2.8
		c1.2,0,2.6-0.1,3.9-0.4c0.1,1,0.4,2,1.1,2.7h-9.9C8.3,16,0,24.9,0,35.5v6.7C0,53.4,8.8,64,18.2,64H32h14.4C54.7,64,64,54.7,64,42.2
		z M37,10h4c0.6,0,1-0.4,1-1s-0.4-1-1-1h-4V6.8c2.1-0.4,8.3-1.2,13.2,2.4c-2.4,1.2-7.7,3.3-13.2,2.1V10z M27,8h-3c-0.6,0-1,0.4-1,1
		s0.4,1,1,1h3v1.2c-5.2,1.2-10-0.4-12.2-1.4C19.5,6.2,25,6.6,27,6.8V8z M46.4,18c6.9,0,12.7,5,14.8,12h-9.1l-17-12H46.4z M48.7,30
		H33V18.9L48.7,30z M29,4.8C29,3.2,30.2,2,31.8,2H32h0.2C33.8,2,35,3.2,35,4.8V13c0,1.3-0.8,2.3-2,2.6V12c0-0.6-0.4-1-1-1l0,0
		c-0.6,0-1,0.4-1,1v3.6c-1.2-0.3-2-1.4-2-2.6V4.8z M31,19v11H16L31,19z M18.2,18H29L12.7,30H2.9C5.1,23.1,11.2,18,18.2,18z M2,42.2
		v-6.7c0-1.2,0.1-2.4,0.3-3.5H12v8c0,0.6,0.4,1,1,1s1-0.4,1-1v-8h17v8c0,0.6,0.4,1,1,1l0,0c0.6,0,1-0.4,1-1v-8h18v8c0,0.6,0.4,1,1,1
		s1-0.4,1-1v-8h8.7c0.2,1.1,0.3,2.3,0.3,3.5v6.7c0,0.6,0,1.2-0.1,1.8H32H2.1C2,43.4,2,42.8,2,42.2z M46.4,62H32H18.2
		C11.1,62,4,54.5,2.4,46H32h29.6C60.1,54.1,54,62,46.4,62z"/>
</g>
</svg>
